<svg width="669" height="120" viewBox="0 0 669 120" fill="none" xmlns="http://www.w3.org/2000/svg">
<g clip-path="url(#clip0_66_114)">
<path d="M203.13 71.4698V70.1099C205.27 69.9899 209.3 69.2499 209.3 67.7299C209.301 67.252 209.216 66.7779 209.05 66.3299L205.27 56.6898H190.27C189.342 58.8831 188.528 61.1228 187.83 63.3999C187.445 64.4986 187.219 65.647 187.16 66.8099C187.16 69.0099 191.92 69.9899 194.05 70.1099V71.4499H177.31V70.1099C178.793 69.9912 180.241 69.5979 181.58 68.9499C183.04 68.0999 184.14 66.3298 185.05 64.1898C189.39 53.6999 194.45 40.7599 199.05 29.1099H201.36C207.59 44.8499 213.57 60.3499 215.82 66.0199C216.243 67.3006 217.137 68.3729 218.32 69.0199C219.569 69.6428 220.928 70.0164 222.32 70.1199V71.4599L203.13 71.4698ZM197.7 37.6699L191.05 54.6699H204.48L197.7 37.6699Z" fill="white"/>
<path d="M239.04 71.4698V70.2499C240.01 70.2186 240.973 70.0743 241.91 69.8199C242.456 69.6199 242.918 69.2391 243.218 68.7407C243.518 68.2423 243.639 67.6563 243.56 67.0799V52.3699C243.56 48.1699 241.12 45.8499 238.5 45.8499C236.96 45.8025 235.437 46.1749 234.093 46.9271C232.749 47.6793 231.635 48.783 230.87 50.1199V66.7699C230.82 67.3437 230.952 67.9187 231.249 68.4127C231.545 68.9066 231.99 69.2942 232.52 69.5199C233.416 69.949 234.388 70.1971 235.38 70.2499V71.4698H220.99V70.2499C221.898 70.2189 222.798 70.0744 223.67 69.8199C224.216 69.6199 224.678 69.2391 224.978 68.7407C225.278 68.2423 225.399 67.6563 225.32 67.0799V49.5699C225.291 48.945 225.129 48.3336 224.844 47.7765C224.56 47.2194 224.159 46.7296 223.67 46.3399C222.77 45.7601 221.738 45.4162 220.67 45.3399V44.1799L230.43 43.5099L230.86 43.9398V48.1099H230.98C233.3 45.8599 235.62 43.1099 240.86 43.1099C246.54 43.1099 249.16 46.9599 249.16 52.7499V66.8399C249.099 67.4077 249.22 67.9802 249.506 68.4746C249.792 68.969 250.227 69.3596 250.75 69.5899C251.591 69.9868 252.501 70.2144 253.43 70.2599V71.4799L239.04 71.4698Z" fill="white"/>
<path d="M263.57 72.1099C258.57 72.1099 256.19 69.1098 256.19 63.6898V46.6898H250.33V44.0699H256.33V34.6099H261.64V44.0699H269.99V46.6898H261.7V62.9799C261.7 66.4599 262.7 68.7099 266.4 68.7099C269.51 68.7099 269.75 66.2699 270.12 63.9599H271.46C270.95 68.2999 268.13 72.1099 263.57 72.1099Z" fill="white"/>
<path d="M285.29 72.3201C277.97 72.3201 271.5 66.7701 271.5 57.8001C271.5 49.1401 277.17 43.1001 285.71 43.1001C294.25 43.1001 299.62 49.2601 299.62 57.3801C299.62 65.5001 294.5 72.3201 285.29 72.3201ZM285.65 44.5101C279.31 44.5101 277.65 51.5101 277.65 57.3201C277.65 64.5801 279.91 70.9201 285.65 70.9201C291.08 70.9201 293.46 64.7601 293.46 57.4401C293.46 51.0301 291.57 44.5101 285.65 44.5101V44.5101Z" fill="white"/>
<path d="M298.95 71.47V70.2501C299.861 70.2187 300.765 70.0743 301.64 69.82C302.174 69.6037 302.623 69.2192 302.919 68.7248C303.215 68.2304 303.342 67.653 303.28 67.08V49.57C303.245 48.9799 303.08 48.4047 302.797 47.886C302.513 47.3672 302.118 46.9178 301.64 46.57C300.532 45.9411 299.307 45.5463 298.04 45.41V44.2501L308.41 43.58L308.83 44.01V66.71C308.789 67.2903 308.925 67.8693 309.219 68.3708C309.514 68.8724 309.953 69.2731 310.48 69.52C311.33 69.912 312.239 70.1588 313.17 70.2501V71.47H298.95ZM305.54 35.29C304.558 35.2746 303.621 34.8777 302.927 34.1834C302.232 33.4891 301.836 32.5518 301.82 31.57C301.82 30.5721 302.208 29.6131 302.902 28.8963C303.596 28.1795 304.543 27.7612 305.54 27.73C306.031 27.7058 306.521 27.7806 306.982 27.9499C307.443 28.1192 307.865 28.3796 308.224 28.7155C308.582 29.0514 308.869 29.456 309.068 29.9052C309.266 30.3544 309.373 30.8389 309.38 31.33C309.389 31.8426 309.297 32.3519 309.109 32.8287C308.921 33.3055 308.64 33.7404 308.283 34.1084C307.926 34.4764 307.5 34.7702 307.03 34.973C306.559 35.1758 306.053 35.2835 305.54 35.29V35.29Z" fill="white"/>
<path d="M332.57 71.4698V70.2499C333.537 70.2179 334.497 70.0735 335.43 69.8199C335.98 69.6299 336.449 69.2576 336.758 68.7646C337.067 68.2717 337.198 67.6878 337.13 67.1099V52.3699C337.13 48.1699 334.69 45.8499 332.07 45.8499C330.531 45.8025 329.007 46.1749 327.663 46.9271C326.319 47.6793 325.205 48.783 324.44 50.1199V66.7699C324.39 67.3437 324.522 67.9187 324.819 68.4127C325.115 68.9066 325.56 69.2942 326.09 69.5199C326.989 69.95 327.965 70.1981 328.96 70.2499V71.4698H314.56V70.2499C315.468 70.2197 316.368 70.0752 317.24 69.8199C317.786 69.6199 318.248 69.2391 318.548 68.7407C318.848 68.2423 318.969 67.6563 318.89 67.0799V49.5699C318.861 48.945 318.699 48.3336 318.414 47.7765C318.13 47.2194 317.729 46.7296 317.24 46.3399C316.34 45.7601 315.308 45.4162 314.24 45.3399V44.1799L324 43.5099L324.43 43.9398V48.1099H324.55C326.87 45.8599 329.19 43.1099 334.44 43.1099C340.11 43.1099 342.73 46.9599 342.73 52.7499V66.8399C342.669 67.4077 342.79 67.9802 343.076 68.4746C343.362 68.969 343.797 69.3596 344.32 69.5899C345.161 69.9855 346.072 70.2131 347 70.2599V71.4799L332.57 71.4698Z" fill="white"/>
<path d="M360.26 72.2001C351.05 72.2001 346.78 65.4901 346.78 57.4401C346.78 50.1201 351.48 43.1001 359.59 43.1001C367.95 43.1001 371 48.5901 371 54.8201V55.3601H352.82V56.0401C352.82 63.9101 355.38 69.5201 361.91 69.5201C366.67 69.5201 368.19 67.8101 370.51 64.0901L371.61 64.8201C370.618 67.0036 369.022 68.8581 367.011 70.1656C365.001 71.473 362.658 72.1788 360.26 72.2001V72.2001ZM359.53 44.5101C355.69 44.5101 353 48.2901 352.82 54.0201L365.08 53.9001C365.13 49.5101 364.13 44.5101 359.53 44.5101Z" fill="white"/>
<path d="M383.99 72.1099C378.99 72.1099 376.61 69.1098 376.61 63.6898V46.6898H370.76V44.0699H376.76V34.6099H382.07V44.0699H390.43V46.6898H382.13V62.9799C382.13 66.4599 383.13 68.7099 386.83 68.7099C389.94 68.7099 390.19 66.2699 390.55 63.9599H391.89C391.38 68.2999 388.51 72.1099 383.99 72.1099Z" fill="white"/>
<path d="M403.21 72.1099C398.21 72.1099 395.83 69.1098 395.83 63.6898V46.6898H389.97V44.0699H395.97V34.6099H401.28V44.0699H409.64V46.6898H401.34V62.9799C401.34 66.4599 402.34 68.7099 406.04 68.7099C409.15 68.7099 409.39 66.2699 409.76 63.9599H411.13C410.59 68.2999 407.72 72.1099 403.21 72.1099Z" fill="white"/>
<path d="M424.68 72.2001C415.47 72.2001 411.2 65.4901 411.2 57.4401C411.2 50.1201 415.9 43.1001 424.01 43.1001C432.37 43.1001 435.42 48.5901 435.42 54.8201V55.3601H417.24V56.0401C417.24 63.9101 419.8 69.5201 426.33 69.5201C431.09 69.5201 432.61 67.8101 434.93 64.0901L436.03 64.8201C435.038 67.0036 433.442 68.8581 431.431 70.1656C429.421 71.473 427.078 72.1788 424.68 72.2001V72.2001ZM423.95 44.5101C420.11 44.5101 417.42 48.2901 417.24 54.0201L429.5 53.9001C429.5 49.5101 428.59 44.5101 423.95 44.5101Z" fill="white"/>
<path d="M502.13 32.36C500.55 33.28 499.69 34.87 498.96 36.82C496.15 44.26 490.85 59.39 486.45 71.96H484.26C480.47 59.33 476.94 48.17 474.43 40.48L462.93 71.96H460.62C455.8 56.1 451.04 40.78 449.39 35.23C449.239 34.6017 448.961 34.0111 448.572 33.495C448.183 32.9789 447.692 32.5483 447.13 32.23C445.882 31.6035 444.523 31.2296 443.13 31.13V29.79H461.74V31.11C459.6 31.24 455.74 31.91 455.74 33.37C455.761 33.8875 455.842 34.4009 455.98 34.9C456.83 37.64 460.07 48.32 464.4 61.98L473.31 37.83C473.395 36.7348 473.179 35.6372 472.683 34.6567C472.188 33.6763 471.432 32.8507 470.5 32.27C469.013 31.6108 467.422 31.2182 465.8 31.11V29.77H484.8V31.11C482.67 31.24 478.95 31.91 478.95 33.37C478.971 33.8875 479.052 34.4009 479.19 34.9C479.99 37.46 483.52 48.07 487.98 61.68C491.39 52.16 493.9 44.84 495.36 39.9C496.28 36.73 496.58 35.45 496.58 34.41C496.58 32.27 492.58 31.3 489.75 31.11V29.77H506.13V31.11C504.728 31.2633 503.37 31.6878 502.13 32.36V32.36Z" fill="white"/>
<path d="M511.01 72.2001C501.8 72.2001 497.52 65.4901 497.52 57.4401C497.52 50.1201 502.22 43.1001 510.34 43.1001C518.69 43.1001 521.75 48.5901 521.75 54.8201V55.3601H503.56V56.0401C503.56 63.9101 506.13 69.5201 512.65 69.5201C517.41 69.5201 518.94 67.8101 521.26 64.0901L522.35 64.8201C521.358 67.002 519.764 68.8556 517.756 70.1629C515.747 71.4702 513.407 72.1769 511.01 72.2001V72.2001ZM510.27 44.5101C506.43 44.5101 503.75 48.2901 503.56 54.0201L515.83 53.9001C515.83 49.5101 514.91 44.5101 510.27 44.5101Z" fill="white"/>
<path d="M533.7 72.3198C530.7 72.3198 527.48 70.9198 526.44 69.8798L525.83 71.7798H523.83L523.52 62.3198H524.8C525.47 65.3198 529.14 70.8598 534.02 70.8598C538.29 70.8598 539.75 68.5998 539.75 65.6098C539.75 62.4398 537.37 61.1598 532.61 59.7598C528.71 58.5998 524.32 56.3398 524.32 51.0898C524.32 46.5798 527.79 43.0898 533.47 43.0898C535.691 43.016 537.887 43.5669 539.81 44.6798L540.3 43.0298H542.19L542.62 51.4498H541.33C541.006 49.5296 540.025 47.7816 538.555 46.5047C537.085 45.2279 535.217 44.5015 533.27 44.4498C529.55 44.4498 528.51 46.5798 528.51 48.8398C528.51 52.3098 530.59 52.9898 535.65 54.6298C540.71 56.2698 543.95 58.5398 543.95 63.5398C543.95 69.0298 539.44 72.3198 533.7 72.3198Z" fill="white"/>
<path d="M557.37 72.1099C552.37 72.1099 549.99 69.1098 549.99 63.6898V46.6898H544.13V44.0699H550.13V34.6099H555.44V44.0699H563.8V46.6898H555.5V62.9799C555.5 66.4599 556.5 68.7099 560.2 68.7099C563.31 68.7099 563.55 66.2699 563.92 63.9599H565.26C564.75 68.2999 561.89 72.1099 557.37 72.1099Z" fill="white"/>
<path d="M581.96 72.2002C578.42 72.2002 576.34 71.3502 574.96 70.3102H574.72V80.2602C574.673 80.8542 574.811 81.4482 575.115 81.9605C575.42 82.4727 575.875 82.8779 576.42 83.1202C577.782 83.5925 579.195 83.9013 580.63 84.0402V85.2602H564.2V84.0402C565.335 83.9642 566.46 83.7801 567.56 83.4902C568.72 83.1202 569.14 81.9602 569.14 80.6202V49.4502C569.112 48.8649 568.957 48.2929 568.684 47.7745C568.411 47.2561 568.027 46.804 567.56 46.4502C566.528 45.8725 565.38 45.531 564.2 45.4502V44.2902L574.2 43.6202L574.63 43.9802V47.1002L574.87 47.1602C575.903 45.9751 577.164 45.0102 578.578 44.323C579.992 43.6358 581.53 43.2403 583.1 43.1602C590.1 43.1602 595.79 49.0202 595.79 57.9902C595.818 59.8321 595.482 61.6613 594.801 63.3731C594.121 65.0849 593.109 66.6455 591.824 67.9656C590.539 69.2857 589.007 70.3393 587.314 71.0659C585.621 71.7926 583.802 72.178 581.96 72.2002V72.2002ZM581.04 45.6002C579.821 45.5918 578.615 45.8622 577.517 46.3908C576.418 46.9194 575.454 47.6922 574.7 48.6502V66.0402C575.169 67.4641 576.076 68.7032 577.292 69.5799C578.508 70.4565 579.971 70.9257 581.47 70.9202C586.1 70.9202 589.58 66.2202 589.58 57.8702C589.58 51.7602 587.2 45.6002 581.04 45.6002V45.6002Z" fill="white"/>
<path d="M612.64 71.4702V70.2502C613.61 70.2189 614.573 70.0746 615.51 69.8202C616.045 69.616 616.496 69.2376 616.79 68.746C617.084 68.2544 617.203 67.6782 617.13 67.1102V52.3702C617.13 48.1702 614.69 45.8502 612.06 45.8502C610.522 45.8036 609 46.1764 607.658 46.9286C606.315 47.6808 605.203 48.7841 604.44 50.1202V66.7702C604.39 67.3426 604.522 67.9161 604.816 68.4096C605.111 68.9031 605.553 69.2916 606.08 69.5202C606.977 69.9562 607.954 70.2046 608.95 70.2502V71.4702H594.55V70.2502C595.461 70.2189 596.364 70.0744 597.24 69.8202C597.785 69.62 598.246 69.2387 598.544 68.7401C598.843 68.2415 598.961 67.6556 598.88 67.0802V32.3002C598.82 30.9505 598.231 29.6788 597.24 28.7602C595.946 28.1884 594.562 27.8498 593.15 27.7602V26.6002L604.01 25.9302L604.44 26.3602V48.1102H604.56C606.88 45.8602 609.32 43.1102 614.56 43.1102C620.24 43.1102 622.74 46.9602 622.74 52.7502V66.8402C622.679 67.408 622.8 67.9805 623.086 68.4749C623.371 68.9693 623.807 69.3599 624.33 69.5902C625.171 69.9871 626.081 70.2147 627.01 70.2602V71.4802L612.64 71.4702Z" fill="white"/>
<path d="M648.82 72.1101C645.95 72.1101 644.43 70.8301 643.45 68.0201H643.27C642.166 69.3335 640.789 70.3906 639.234 71.1176C637.68 71.8447 635.986 72.2243 634.27 72.2301C630.06 72.2301 627.19 69.6701 627.19 65.7701C627.19 60.7701 630.12 59.0501 633.19 57.9001C636.67 56.5501 640.88 55.5201 643.44 54.0501V50.6101C643.44 49.5101 643.26 44.4401 638.19 44.4401C637.442 44.4316 636.705 44.6192 636.053 44.9841C635.4 45.3491 634.854 45.8787 634.47 46.5201C634.47 47.4301 635.02 48.7801 635.02 50.1201C635.02 51.4601 633.68 52.7401 631.48 52.7401C629.48 52.7401 628.74 51.1501 628.74 49.5701C628.74 45.9101 633.92 43.1001 638.56 43.1001C644.56 43.1001 649.05 44.0201 649.05 52.1001C649.05 57.4701 648.75 63.7501 648.75 65.7701C648.75 66.6801 649.6 68.8801 651.61 68.8801C653.62 68.8801 653.81 66.5001 653.99 64.1801H655.34C654.92 69.8801 652.6 72.1101 648.82 72.1101ZM633.13 64.8201C633.13 68.1801 634.65 69.7001 637.28 69.7001C640.45 69.7001 641.79 68.3001 643.28 66.4701L643.52 55.7901C637.35 57.6801 633.13 59.3901 633.13 64.8201Z" fill="white"/>
<path d="M654.43 71.4699V70.25C655.338 70.2198 656.238 70.0753 657.11 69.8199C657.656 69.62 658.118 69.2392 658.418 68.7408C658.718 68.2424 658.839 67.6564 658.76 67.08V32.49C658.748 31.8279 658.597 31.1758 658.316 30.5762C658.035 29.9765 657.631 29.4428 657.13 29.0099C655.788 28.3584 654.343 27.9455 652.86 27.7899V26.63L663.86 25.96L664.28 26.39V66.71C664.23 67.2915 664.362 67.8741 664.658 68.3774C664.953 68.8807 665.398 69.2799 665.93 69.52C666.76 69.9541 667.674 70.2032 668.61 70.25V71.4699H654.43Z" fill="white"/>
<path d="M181.05 15.5201C181.559 15.497 182.065 15.4233 182.56 15.3001C182.759 15.2237 182.929 15.0853 183.044 14.9054C183.159 14.7254 183.214 14.5133 183.2 14.3001V3.73012C183.228 3.50723 183.18 3.28145 183.064 3.08916C182.947 2.89686 182.77 2.74925 182.56 2.67012C182.107 2.48054 181.628 2.36247 181.14 2.32013V1.87012H187.95C190.85 1.87012 195.72 3.36013 195.72 9.02013C195.72 13.8301 191.61 16.0201 187.54 16.0201H181.05V15.5201ZM192.58 8.99013C192.58 5.23013 190.58 2.49013 187.52 2.49013C187.09 2.49013 186.36 2.49013 185.95 2.49013V13.8301C186.01 14.8301 186.59 15.3201 187.95 15.3201C191.18 15.3601 192.58 12.7101 192.58 8.99013Z" fill="white"/>
<path d="M209.97 12.7502C209.75 10.8302 209.33 9.18016 207.18 9.18016H205.99V14.1802C205.974 14.391 206.026 14.6013 206.137 14.781C206.249 14.9607 206.414 15.1004 206.61 15.1802C207.094 15.3199 207.589 15.4169 208.09 15.4702V15.9302H201.09V15.4702C201.607 15.4389 202.12 15.3551 202.62 15.2202C202.819 15.1437 202.989 15.0054 203.104 14.8254C203.219 14.6455 203.274 14.4333 203.26 14.2202V3.69016C203.274 3.47697 203.219 3.26486 203.104 3.0849C202.989 2.90494 202.819 2.7666 202.62 2.69016C202.121 2.53261 201.609 2.42212 201.09 2.36015V1.91016H208.46C211.07 1.91016 213.3 2.91015 213.3 5.11015C213.3 7.31015 211.17 8.31016 209.5 8.77016V8.93016C210.5 9.06016 212.14 9.57015 212.5 11.0802C212.81 12.2202 212.92 13.0802 213.17 14.0802C213.37 14.8802 213.81 15.0802 214.17 15.0802C214.68 15.0802 215.17 14.4801 215.17 13.2001V12.7601H215.75V13.2202C215.75 15.0402 214.98 16.2202 212.92 16.2202C211.13 16.2002 210.28 15.2102 209.97 12.7502ZM206.83 8.56015C208.65 8.56015 210.2 7.84016 210.2 5.46016C210.2 3.08016 208.94 2.46016 207.29 2.46016H205.99V8.55016L206.83 8.56015Z" fill="white"/>
<path d="M220.28 15.5201C220.824 15.4807 221.363 15.3903 221.89 15.2501C222.097 15.1842 222.274 15.0481 222.39 14.8656C222.507 14.683 222.557 14.4653 222.53 14.2501V3.73013C222.544 3.51695 222.49 3.30483 222.375 3.12488C222.259 2.94492 222.09 2.80658 221.89 2.73013C221.368 2.54605 220.828 2.41539 220.28 2.34013V1.89014H232.01V5.32014H231.46C231.21 4.39014 230.11 2.71014 229.14 2.57014C228.579 2.50989 228.014 2.48317 227.45 2.49014H225.28V8.37013H226.83C227.154 8.41106 227.484 8.3764 227.793 8.26884C228.102 8.16129 228.381 7.98375 228.61 7.75014C228.999 7.17791 229.239 6.5182 229.31 5.83014H229.87V11.6401H229.31C229.222 10.9311 228.984 10.2491 228.61 9.64014C228.382 9.40524 228.103 9.22686 227.794 9.11922C227.484 9.01157 227.155 8.97764 226.83 9.02014H225.28V13.5901C225.28 15.2001 225.63 15.4101 227.61 15.4101C228.92 15.4101 230.32 15.4101 230.82 14.9301C231.566 14.0305 232.163 13.0178 232.59 11.9301H233.13L232.86 16.0601H220.28V15.5201Z" fill="white"/>
<path d="M248.91 3.16986C248.91 2.58986 248.04 2.39987 246.91 2.31987V1.86986H252.75V2.31987C252.263 2.3613 251.785 2.47242 251.33 2.64986C250.619 2.97713 250.006 3.48373 249.55 4.11986C248.42 5.49986 247.28 6.98986 246.35 8.11986C247.35 9.55986 249.72 13.0099 250.27 13.7399C250.666 14.3387 251.188 14.8438 251.8 15.2199C252.284 15.3977 252.794 15.4957 253.31 15.5099V15.9699H245.21V15.5099C246.43 15.4299 247.36 15.2399 247.36 14.6899C247.36 14.1399 246.02 12.1899 244.45 9.97986C243.56 11.0699 241.17 14.0499 241.17 14.6899C241.17 15.3299 242.03 15.4499 243.17 15.5299V15.9899H237.32V15.5299C237.811 15.4921 238.293 15.3809 238.75 15.1999C239.455 14.8728 240.065 14.3701 240.52 13.7399C241.81 12.2099 243.04 10.5299 244.04 9.35986C242.71 7.45986 241.33 5.44986 240.4 4.08986C240.052 3.45535 239.518 2.94243 238.87 2.61986C238.389 2.45175 237.888 2.34753 237.38 2.30986V1.85986H245.46V2.30986C244.24 2.38986 243.33 2.57986 243.33 3.13986C243.33 3.87986 245.05 6.23986 245.94 7.47986C246.99 6.20986 248.91 3.72986 248.91 3.16986Z" fill="white"/>
<path d="M257.75 15.5201C258.294 15.4807 258.833 15.3903 259.36 15.2501C259.567 15.1842 259.743 15.0481 259.86 14.8656C259.977 14.683 260.027 14.4653 260 14.2501V3.73013C260.014 3.51695 259.96 3.30483 259.844 3.12488C259.729 2.94492 259.56 2.80658 259.36 2.73013C258.838 2.54605 258.298 2.41539 257.75 2.34013V1.89014H269.48V5.32014H268.93C268.68 4.39014 267.59 2.71014 266.61 2.57014C266.049 2.50989 265.484 2.48317 264.92 2.49014H262.75V8.37013H264.3C264.624 8.41106 264.954 8.3764 265.263 8.26884C265.571 8.16129 265.851 7.98375 266.08 7.75014C266.469 7.17791 266.709 6.5182 266.78 5.83014H267.34V11.6401H266.78C266.697 10.9301 266.458 10.2472 266.08 9.64014C265.852 9.40524 265.573 9.22686 265.263 9.11922C264.954 9.01157 264.625 8.97764 264.3 9.02014H262.75V13.5901C262.75 15.2001 263.1 15.4101 265.09 15.4101C266.39 15.4101 267.79 15.4101 268.29 14.9301C269.04 14.0334 269.638 13.02 270.06 11.9301H270.58L270.31 16.0601H257.75V15.5201Z" fill="white"/>
<path d="M275.62 15.5202C276.136 15.4791 276.648 15.3955 277.15 15.2702C277.35 15.1937 277.519 15.0554 277.635 14.8754C277.75 14.6955 277.804 14.4833 277.79 14.2702V3.75015C277.804 3.53697 277.75 3.32485 277.635 3.1449C277.519 2.96494 277.35 2.8266 277.15 2.75015C276.656 2.56422 276.143 2.43343 275.62 2.36015V1.91016H282.62V2.36015C282.12 2.41814 281.625 2.5151 281.14 2.65015C280.935 2.71776 280.759 2.85417 280.642 3.03633C280.526 3.2185 280.475 3.43528 280.5 3.65015V13.5502C280.5 15.2402 280.79 15.3902 282.83 15.3902C283.95 15.3902 285.23 15.3301 285.66 14.8701C286.444 13.9443 287.072 12.8973 287.52 11.7702H288.01L287.73 15.9902H275.62V15.5202Z" fill="white"/>
<path d="M303.18 11.8002V3.71016C303.184 3.49891 303.125 3.29121 303.012 3.11325C302.898 2.93529 302.734 2.79503 302.54 2.71016C302.079 2.53581 301.599 2.41827 301.11 2.36015V1.91016H308.05V2.36015C307.554 2.41044 307.062 2.50074 306.58 2.63016C306.374 2.69612 306.197 2.83215 306.08 3.01474C305.963 3.19733 305.913 3.41501 305.94 3.63016V11.6302C305.94 13.7302 306.71 15.4102 309.48 15.4102C309.995 15.4514 310.512 15.3799 310.997 15.2006C311.481 15.0213 311.92 14.7385 312.284 14.3719C312.648 14.0053 312.927 13.5639 313.102 13.0782C313.278 12.5926 313.345 12.0745 313.3 11.5602V5.80016C313.3 4.19016 313.05 3.34015 312.6 3.01015C311.977 2.67914 311.3 2.46238 310.6 2.37015V1.92015H316.69V2.37015C316.031 2.4325 315.389 2.60844 314.79 2.89015C314.28 3.24015 314.13 4.19016 314.13 5.68016V11.6802C314.13 15.0202 311.3 16.3701 308.87 16.3701C305.13 16.3101 303.18 14.3402 303.18 11.8002Z" fill="white"/>
<path d="M324.31 4.7401V12.0301C324.31 13.6201 324.55 14.4901 325.01 14.8601C325.634 15.1922 326.311 15.4154 327.01 15.5201V15.9801H320.92V15.5201C321.578 15.4311 322.219 15.2423 322.82 14.9601C323.3 14.6101 323.48 13.7201 323.48 12.1301V4.90009C323.489 4.59919 323.438 4.29953 323.328 4.01932C323.217 3.7391 323.052 3.4842 322.84 3.2701C322.225 2.80275 321.509 2.48441 320.75 2.34009V1.87009H325.4L333.5 12.1101V5.75009C333.5 4.22009 333.25 3.27009 332.8 2.94009C332.173 2.61961 331.497 2.40345 330.8 2.30009V1.8501H336.88V2.30009C336.22 2.36955 335.578 2.55222 334.98 2.84009C334.48 3.19009 334.31 4.1801 334.31 5.6301V16.1101H333.31L324.31 4.7401Z" fill="white"/>
<path d="M341.51 15.5201C342.013 15.4942 342.511 15.4205 343 15.3001C343.207 15.2342 343.383 15.0981 343.5 14.9155C343.617 14.733 343.667 14.5153 343.64 14.3001V3.71013C343.654 3.49694 343.6 3.28481 343.484 3.10486C343.369 2.9249 343.2 2.78658 343 2.71013C342.518 2.53001 342.019 2.39934 341.51 2.32013V1.87012H348.51V2.32013C348 2.3779 347.495 2.47485 347 2.61012C346.794 2.67466 346.618 2.81119 346.504 2.99478C346.39 3.17837 346.346 3.39678 346.38 3.61012V14.2101C346.364 14.4209 346.416 14.6313 346.527 14.811C346.639 14.9906 346.804 15.1304 347 15.2101C347.492 15.3659 347.998 15.4764 348.51 15.5401V16.0001H341.51V15.5201Z" fill="white"/>
<path d="M355.02 3.85013C354.953 3.6086 354.838 3.3831 354.681 3.18719C354.525 2.99129 354.331 2.82903 354.11 2.71013C353.689 2.48648 353.226 2.35362 352.75 2.32013V1.87012H359.75V2.32013C358.62 2.45013 357.75 2.67012 357.75 3.09012C357.756 3.26435 357.79 3.43652 357.85 3.60013C358.08 4.28013 359.85 9.37012 361.12 12.8601C362.05 10.6701 363.35 7.47013 363.74 6.43013C364.218 5.4845 364.555 4.47371 364.74 3.43013C364.74 2.81013 363.4 2.43013 362.39 2.43013V1.96013H367.96V2.43013C367.491 2.47223 367.035 2.60826 366.62 2.83012C366.079 3.24318 365.678 3.81205 365.47 4.46013C364.82 5.94013 361.79 13.2801 360.55 16.2301H359.45C357.98 12.1101 355.54 5.28013 355.02 3.85013Z" fill="white"/>
<path d="M371.9 15.5201C372.444 15.4807 372.983 15.3903 373.51 15.2501C373.716 15.1842 373.893 15.0481 374.01 14.8656C374.127 14.683 374.176 14.4653 374.15 14.2501V3.73013C374.164 3.51695 374.11 3.30483 373.994 3.12488C373.879 2.94492 373.709 2.80658 373.51 2.73013C372.988 2.54605 372.448 2.41539 371.9 2.34013V1.89014H383.63V5.32014H383.13C382.88 4.39014 381.78 2.71014 380.81 2.57014C380.249 2.50989 379.684 2.48317 379.12 2.49014H376.95V8.37013H378.5C378.823 8.41102 379.151 8.37631 379.458 8.26871C379.765 8.16111 380.043 7.98358 380.27 7.75014C380.666 7.18087 380.91 6.52008 380.98 5.83014H381.54V11.6401H380.98C380.893 10.9293 380.651 10.2464 380.27 9.64014C380.044 9.40541 379.766 9.22701 379.459 9.11932C379.151 9.01163 378.823 8.97767 378.5 9.02014H376.95V13.5901C376.95 15.2001 377.3 15.4101 379.28 15.4101C380.58 15.4101 381.99 15.4101 382.48 14.9301C383.232 14.0336 383.834 13.0203 384.26 11.9301H384.78L384.51 16.0601H371.9V15.5201Z" fill="white"/>
<path d="M398.65 12.7502C398.42 10.8302 398.01 9.18016 395.86 9.18016H394.66V14.1802C394.644 14.391 394.696 14.6013 394.807 14.781C394.919 14.9607 395.084 15.1004 395.28 15.1802C395.767 15.3198 396.266 15.4168 396.77 15.4702V15.9302H389.77V15.4702C390.287 15.4389 390.8 15.3551 391.3 15.2202C391.5 15.1437 391.669 15.0054 391.784 14.8254C391.9 14.6455 391.954 14.4333 391.94 14.2202V3.69016C391.954 3.47697 391.9 3.26486 391.784 3.0849C391.669 2.90494 391.5 2.7666 391.3 2.69016C390.801 2.53361 390.289 2.42314 389.77 2.36015V1.91016H397.13C399.73 1.91016 401.97 2.91015 401.97 5.11015C401.97 7.31015 399.84 8.31016 398.17 8.77016V8.93016C399.17 9.06016 400.81 9.57015 401.22 11.0802C401.53 12.2202 401.64 13.0802 401.88 14.0802C402.09 14.8802 402.52 15.0802 402.88 15.0802C403.4 15.0802 403.88 14.4801 403.88 13.2001V12.7601H404.45V13.2202C404.45 15.0402 403.69 16.2202 401.62 16.2202C399.83 16.2002 398.96 15.2102 398.65 12.7502ZM395.51 8.56015C397.33 8.56015 398.88 7.84016 398.88 5.46016C398.88 3.08016 397.62 2.46016 395.96 2.46016H394.66V8.55016L395.51 8.56015Z" fill="white"/>
<path d="M410.65 15.2099L409.97 16.2099H409.27L409.14 11.2099H409.64C410.44 13.3199 411.93 15.6599 414.33 15.6599C414.677 15.6915 415.026 15.6471 415.354 15.5296C415.682 15.4121 415.98 15.2243 416.228 14.9795C416.476 14.7347 416.667 14.4388 416.788 14.1124C416.909 13.786 416.958 13.437 416.93 13.0898C416.914 12.4815 416.696 11.8957 416.311 11.4249C415.925 10.9541 415.394 10.6251 414.8 10.4899C413.8 10.0999 412.92 9.80985 411.99 9.41985C411.225 9.12622 410.574 8.59683 410.13 7.90828C409.686 7.21973 409.472 6.40775 409.52 5.58984C409.52 3.37984 411.27 1.58984 413.96 1.58984C415.12 1.60705 416.25 1.95389 417.22 2.58984L417.84 1.69984H418.56L418.65 6.48985H418.13C417.2 3.90985 415.98 2.25984 413.83 2.25984C413.546 2.25816 413.265 2.31435 413.003 2.42497C412.742 2.5356 412.506 2.69834 412.309 2.90327C412.113 3.10821 411.96 3.35104 411.86 3.61694C411.761 3.88284 411.717 4.16624 411.73 4.44984C411.73 5.68984 412.41 6.44984 413.73 7.00984C414.73 7.43984 415.67 7.72985 416.48 8.07985C418.17 8.82985 419.27 9.75984 419.27 11.9498C419.27 14.4698 417.22 16.3098 414.27 16.3098C412.979 16.3266 411.714 15.9423 410.65 15.2099V15.2099Z" fill="white"/>
<path d="M424.76 15.5201C425.262 15.4934 425.761 15.4197 426.25 15.3001C426.45 15.2237 426.619 15.0853 426.734 14.9054C426.85 14.7254 426.904 14.5133 426.89 14.3001V3.71013C426.904 3.49694 426.85 3.28481 426.734 3.10486C426.619 2.9249 426.45 2.78658 426.25 2.71013C425.767 2.53123 425.268 2.40059 424.76 2.32013V1.87012H431.76V2.32013C431.25 2.379 430.745 2.47593 430.25 2.61012C430.045 2.67643 429.87 2.81333 429.757 2.99644C429.643 3.17956 429.598 3.39702 429.63 3.61012V14.2101C429.614 14.4209 429.666 14.6313 429.777 14.811C429.889 14.9906 430.054 15.1304 430.25 15.2101C430.742 15.3659 431.248 15.4764 431.76 15.5401V16.0001H424.76V15.5201Z" fill="white"/>
<path d="M439.4 15.5201C439.967 15.4829 440.53 15.3925 441.08 15.2501C441.28 15.1736 441.449 15.0353 441.565 14.8553C441.68 14.6754 441.734 14.4633 441.72 14.2501V2.47009H441C440.466 2.46682 439.932 2.49353 439.4 2.55009C438.52 2.67009 437.4 4.66009 437.15 5.55009H436.64V1.8501H449.55V5.55009H449.03C448.78 4.64009 447.67 2.65009 446.78 2.55009C446.252 2.49201 445.721 2.46529 445.19 2.47009H444.46V14.1101C444.447 14.3245 444.503 14.5375 444.62 14.7176C444.737 14.8977 444.909 15.0353 445.11 15.1101C445.657 15.2757 446.215 15.3994 446.78 15.4801V15.9401H439.4V15.5201Z" fill="white"/>
<path d="M456.63 15.5199C457.203 15.488 457.772 15.4044 458.33 15.2699C458.53 15.1935 458.699 15.0551 458.814 14.8752C458.93 14.6952 458.984 14.4831 458.97 14.2699V11.0299C458.95 10.3656 458.742 9.7206 458.37 9.16991C457.62 7.71991 456.3 5.25991 455.62 4.10991C455.315 3.54208 454.876 3.05786 454.34 2.69991C453.927 2.4977 453.479 2.37878 453.02 2.34991V1.8999H460.31V2.34991C459.59 2.34991 458.24 2.57991 458.24 3.02991C459.184 5.13801 460.253 7.18827 461.44 9.16991C462.662 7.27907 463.761 5.31168 464.73 3.27991C464.73 2.65991 463.55 2.40991 462.62 2.34991V1.8999H467.93V2.34991C467.508 2.41843 467.102 2.5606 466.73 2.76991C466.214 3.06682 465.775 3.4814 465.45 3.9799C464.83 4.8499 463.28 7.47992 462.39 9.06992C461.914 9.82926 461.677 10.7142 461.71 11.6099V14.1099C461.696 14.3231 461.75 14.5352 461.866 14.7152C461.981 14.8951 462.15 15.0335 462.35 15.1099C462.898 15.2768 463.461 15.3939 464.03 15.4599V15.9199H456.63V15.5199Z" fill="white"/>
<path d="M192.42 112.67C185.99 112.67 181.62 108.23 181.62 101.32C181.62 94.6 186.55 89.48 193.1 89.48C194.892 89.5108 196.624 90.1291 198.03 91.24L199.03 89.57H200.36L200.49 97.63H199.71C198.54 93.85 196.32 90.42 192.11 90.42C188.78 90.42 185.55 93.65 185.55 101.06C185.55 106.96 189.11 110.97 193.38 110.97C197.38 110.97 199.22 108.91 200.49 106.08L201.34 106.54C199.98 109.57 197.37 112.67 192.42 112.67Z" fill="white"/>
<path d="M209.47 112.63C208.468 112.633 207.476 112.431 206.555 112.037C205.634 111.643 204.802 111.065 204.112 110.338C203.422 109.612 202.888 108.752 202.542 107.812C202.196 106.871 202.046 105.87 202.1 104.87C202.1 100.24 205.1 97.0098 209.7 97.0098C214.3 97.0098 217.14 100.31 217.14 104.64C217.14 108.97 214.4 112.63 209.47 112.63ZM209.67 97.7598C206.28 97.7598 205.4 101.51 205.4 104.61C205.4 108.49 206.6 111.88 209.67 111.88C212.57 111.88 213.84 108.59 213.84 104.68C213.84 101.25 212.83 97.7598 209.67 97.7598V97.7598Z" fill="white"/>
<path d="M217.63 112.18V111.52C218.114 111.507 218.594 111.433 219.06 111.3C219.352 111.192 219.598 110.987 219.758 110.72C219.918 110.452 219.982 110.139 219.94 109.83V91.3401C219.934 90.9853 219.853 90.6357 219.701 90.3149C219.549 89.9942 219.331 89.7095 219.06 89.4801C218.343 89.1332 217.572 88.91 216.78 88.8201V88.2101L222.68 87.8501L222.91 88.0701V109.63C222.884 109.94 222.955 110.251 223.112 110.52C223.27 110.788 223.507 111.001 223.79 111.13C224.235 111.364 224.727 111.498 225.23 111.52V112.18H217.63Z" fill="white"/>
<path d="M226.13 112.18V111.52C226.614 111.506 227.094 111.432 227.56 111.3C227.852 111.192 228.098 110.987 228.258 110.72C228.418 110.452 228.482 110.139 228.44 109.83V91.3401C228.432 90.9856 228.35 90.6367 228.199 90.3162C228.047 89.9957 227.829 89.7108 227.56 89.4801C226.843 89.1332 226.072 88.91 225.28 88.8201V88.2101L231.18 87.8501L231.41 88.0701V109.63C231.384 109.94 231.455 110.251 231.612 110.52C231.77 110.788 232.007 111.001 232.29 111.13C232.735 111.364 233.227 111.498 233.73 111.52V112.18H226.13Z" fill="white"/>
<path d="M240.75 112.57C235.83 112.57 233.54 108.98 233.54 104.68C233.54 100.76 236.06 97.0098 240.39 97.0098C244.72 97.0098 246.49 99.9498 246.49 103.27V103.57H236.77V103.93C236.77 108.13 238.14 111.13 241.63 111.13C244.18 111.13 244.99 110.22 246.23 108.23L246.82 108.62C246.29 109.788 245.437 110.781 244.362 111.481C243.286 112.181 242.033 112.558 240.75 112.57V112.57ZM240.36 97.7598C238.31 97.7598 236.87 99.7598 236.77 102.85L243.33 102.78C243.33 100.44 242.84 97.7598 240.36 97.7598Z" fill="white"/>
<path d="M262.02 100.17C260.94 100.17 260.61 99.4603 260.61 98.0903C259.899 98.0245 259.188 98.22 258.61 98.6402V98.8703C259.374 99.7261 259.813 100.823 259.85 101.97C259.85 104.81 257.01 106.6 254.34 106.6H252.43C251.84 106.89 251.29 107.29 251.29 108C251.29 109.6 253.18 109.54 254.78 109.6C255.72 109.6 257.78 109.76 258.43 109.8C259.559 109.867 260.62 110.362 261.396 111.186C262.171 112.01 262.602 113.099 262.6 114.23C262.6 117.23 260.03 119.55 254.42 119.55C249.26 119.55 247.31 118.05 247.31 115.55C247.31 113.72 249 112.19 252.46 112.09V111.86C251.19 111.5 249.04 110.86 249.04 108.96C249.04 107.36 250.86 106.74 251.94 106.32V106.11C249.66 105.2 248.25 103.7 248.25 101.78C248.25 98.7803 250.86 96.9802 254.09 96.9802C255.62 97.1024 257.124 97.4391 258.56 97.9802C259.513 97.2856 260.672 96.9332 261.85 96.9802C262.26 96.9931 262.648 97.1636 262.935 97.4561C263.222 97.7486 263.385 98.1405 263.39 98.5502C263.39 99.5202 262.9 100.17 262.02 100.17ZM258.33 112.6C256.654 112.412 254.967 112.335 253.28 112.37C250.96 112.83 250.08 113.74 250.08 115.76C250.08 117.07 251.35 118.7 254.97 118.7C258.14 118.7 259.97 117.43 259.97 114.89C260.022 114.374 259.885 113.857 259.583 113.435C259.281 113.014 258.835 112.717 258.33 112.6V112.6ZM253.99 97.7302C251.91 97.7302 251.32 99.6202 251.32 101.73C251.32 104.05 252.4 105.81 254.03 105.81C255.95 105.81 256.8 103.92 256.8 101.81C256.8 99.7003 256.05 97.7302 253.99 97.7302Z" fill="white"/>
<path d="M270.07 112.57C265.15 112.57 262.87 108.98 262.87 104.68C262.87 100.76 265.38 97.0098 269.71 97.0098C274.04 97.0098 275.81 99.9498 275.81 103.27V103.57H266.13V103.93C266.13 108.13 267.5 111.13 270.99 111.13C273.54 111.13 274.35 110.22 275.59 108.23L276.18 108.62C275.647 109.794 274.788 110.791 273.705 111.492C272.622 112.192 271.36 112.566 270.07 112.57V112.57ZM269.68 97.7598C267.63 97.7598 266.19 99.7598 266.09 102.85L272.65 102.78C272.65 100.44 272.13 97.7598 269.68 97.7598Z" fill="white"/>
<path d="M291.79 112.63C290.788 112.633 289.796 112.431 288.875 112.037C287.954 111.643 287.122 111.065 286.432 110.338C285.742 109.612 285.208 108.752 284.862 107.812C284.516 106.871 284.366 105.87 284.42 104.87C284.42 100.24 287.42 97.0098 292.02 97.0098C296.62 97.0098 299.46 100.31 299.46 104.64C299.46 108.97 296.72 112.63 291.79 112.63ZM291.99 97.7598C288.6 97.7598 287.72 101.51 287.72 104.61C287.72 108.49 288.92 111.88 291.99 111.88C294.89 111.88 296.17 108.59 296.17 104.68C296.13 101.25 295.13 97.7598 291.99 97.7598Z" fill="white"/>
<path d="M312.13 92.3798C311.38 92.3798 310.24 92.0198 310.24 90.9098C310.24 90.4198 310.44 89.9099 310.44 89.1799C310.393 89.0052 310.29 88.8505 310.148 88.7388C310.005 88.6271 309.831 88.5643 309.65 88.5599C307.6 88.5599 306.59 90.5598 306.42 95.5098C306.42 95.9998 306.42 96.9498 306.42 97.5098H310.53V98.8798H306.42V109.68C306.394 109.985 306.465 110.291 306.623 110.553C306.781 110.815 307.018 111.021 307.3 111.14C307.987 111.36 308.699 111.492 309.42 111.53V112.19H301.14V111.53C301.624 111.516 302.104 111.442 302.57 111.31C302.862 111.201 303.108 110.997 303.268 110.729C303.428 110.462 303.492 110.148 303.45 109.84V98.8399H300.13V97.4698H303.45V96.4698C303.288 94.0355 304.085 91.6343 305.67 89.7799C306.288 89.1331 307.034 88.6215 307.86 88.2772C308.687 87.933 309.575 87.7637 310.47 87.7799C312.91 87.7799 313.92 89.2499 313.92 90.6499C313.895 91.1108 313.696 91.5453 313.364 91.8661C313.032 92.1869 312.591 92.3704 312.13 92.3798V92.3798Z" fill="white"/>
<path d="M335.89 112.18V111.46C336.849 111.423 337.801 111.282 338.73 111.04C339.047 110.896 339.312 110.659 339.491 110.361C339.67 110.063 339.753 109.717 339.73 109.37V92.6699L331.28 111.82H330.66C330.163 110.281 329.585 108.769 328.93 107.29L322.65 93.1099V105.96C322.65 108.44 323.04 109.84 323.76 110.43C324.812 110.958 325.95 111.297 327.12 111.43V112.15H317.33V111.43C318.373 111.359 319.393 111.083 320.33 110.62C321.11 110.06 321.4 108.62 321.4 106.11V94.2099C321.456 93.716 321.394 93.2159 321.221 92.7503C321.047 92.2846 320.766 91.8665 320.4 91.5299C319.529 90.9483 318.507 90.6322 317.46 90.6199V89.8999H324.8L332.37 106.5L338.47 92.6699C338.849 91.7864 339.101 90.8539 339.22 89.8999H346.59V90.6199C345.775 90.6811 344.968 90.8217 344.18 91.0399C343.85 91.1434 343.568 91.3616 343.384 91.655C343.201 91.9484 343.128 92.2977 343.18 92.6399V109.37C343.156 109.708 343.239 110.045 343.419 110.333C343.599 110.621 343.865 110.844 344.18 110.97C344.97 111.233 345.79 111.397 346.62 111.46V112.18H335.89Z" fill="white"/>
<path d="M354.13 112.57C349.21 112.57 346.93 108.98 346.93 104.68C346.93 100.76 349.44 97.0098 353.78 97.0098C358.12 97.0098 359.87 99.9498 359.87 103.27V103.57H350.16V103.93C350.16 108.13 351.52 111.13 355.02 111.13C357.56 111.13 358.37 110.22 359.61 108.23L360.2 108.62C359.67 109.788 358.817 110.781 357.742 111.481C356.666 112.181 355.413 112.558 354.13 112.57V112.57ZM353.74 97.7598C351.69 97.7598 350.25 99.7598 350.16 102.85L356.71 102.78C356.73 100.44 356.24 97.7598 353.76 97.7598H353.74Z" fill="white"/>
<path d="M372.81 112.24L372.58 112.01V110.61H372.45C371.894 111.213 371.224 111.7 370.479 112.043C369.735 112.386 368.93 112.579 368.11 112.61C364.3 112.61 361.17 109.51 361.17 104.61C361.157 103.623 361.339 102.642 361.705 101.725C362.072 100.808 362.616 99.973 363.306 99.2668C363.997 98.5607 364.82 97.9978 365.728 97.6106C366.637 97.2233 367.613 97.0192 368.6 97.0101C369.964 97.0228 371.31 97.3226 372.55 97.8901V91.4301C372.525 90.7131 372.22 90.0345 371.7 89.5401C370.803 89.1018 369.827 88.8468 368.83 88.7901V88.2101L375.29 87.8501L375.52 88.0701V109.24C375.526 109.555 375.606 109.864 375.754 110.142C375.901 110.42 376.112 110.659 376.37 110.84C376.975 111.11 377.628 111.253 378.29 111.26V111.88L372.81 112.24ZM372.55 100.44C372.316 99.6469 371.829 98.9524 371.162 98.4629C370.496 97.9734 369.687 97.716 368.86 97.7301C366.38 97.7301 364.49 100.5 364.49 104.97C364.49 108.23 365.93 111.33 369.22 111.33C369.864 111.323 370.499 111.169 371.075 110.882C371.652 110.594 372.156 110.18 372.55 109.67V100.44Z" fill="white"/>
<path d="M378.81 112.18V111.52C379.297 111.506 379.781 111.432 380.25 111.3C380.537 111.184 380.778 110.978 380.937 110.713C381.096 110.448 381.163 110.138 381.13 109.83V100.47C381.113 100.15 381.025 99.8384 380.873 99.5566C380.721 99.2748 380.508 99.0302 380.25 98.8402C379.657 98.5021 378.999 98.2909 378.32 98.2202V97.6002L383.87 97.2402L384.09 97.4702V109.63C384.068 109.941 384.141 110.251 384.3 110.519C384.459 110.788 384.697 111.001 384.98 111.13C385.431 111.34 385.915 111.472 386.41 111.52V112.18H378.81ZM382.33 92.8402C381.8 92.8402 381.291 92.6295 380.916 92.2544C380.541 91.8794 380.33 91.3707 380.33 90.8402C380.33 90.3041 380.539 89.789 380.912 89.4044C381.285 89.0197 381.794 88.7958 382.33 88.7802C382.859 88.764 383.373 88.958 383.759 89.3198C384.145 89.6815 384.372 90.1815 384.39 90.7102C384.397 90.9859 384.348 91.2601 384.248 91.5169C384.148 91.7738 383.998 92.0081 383.806 92.2063C383.614 92.4045 383.385 92.5626 383.132 92.6715C382.878 92.7803 382.606 92.8377 382.33 92.8402V92.8402Z" fill="white"/>
<path d="M398.54 112.5C397.879 112.545 397.224 112.349 396.696 111.948C396.168 111.547 395.804 110.969 395.67 110.32H395.58C394.987 111.024 394.248 111.59 393.414 111.979C392.579 112.367 391.67 112.569 390.75 112.57C388.5 112.57 386.96 111.2 386.96 109.11C386.96 106.44 388.53 105.52 390.16 104.9C392.027 104.329 393.857 103.644 395.64 102.85V101.02C395.64 100.44 395.54 97.7298 392.84 97.7298C392.438 97.7222 392.042 97.8209 391.691 98.0158C391.339 98.2107 391.046 98.495 390.84 98.8398C390.84 99.3298 391.13 100.04 391.13 100.76C391.13 101.48 390.41 102.16 389.24 102.16C388.07 102.16 387.77 101.32 387.77 100.47C387.77 98.4698 390.54 97.0098 393.02 97.0098C396.25 97.0098 398.63 97.4998 398.63 101.84C398.63 104.71 398.47 108.07 398.47 109.15C398.47 109.63 398.93 110.81 400 110.81C401.07 110.81 401.18 109.54 401.27 108.3H401.99C401.81 111.33 400.57 112.5 398.54 112.5ZM390.13 108.62C390.13 110.42 390.94 111.23 392.35 111.23C392.987 111.248 393.617 111.097 394.177 110.793C394.738 110.49 395.208 110.043 395.54 109.5L395.67 103.8C392.41 104.81 390.13 105.72 390.13 108.62Z" fill="white"/>
<path d="M420.53 112.18V111.46C421.67 111.4 423.82 111 423.82 110.19C423.823 109.934 423.779 109.68 423.69 109.44L421.69 104.28H413.69C413.193 105.453 412.76 106.651 412.39 107.87C412.183 108.46 412.062 109.076 412.03 109.7C412.03 110.87 414.57 111.4 415.72 111.46V112.18H406.72V111.46C407.512 111.399 408.286 111.188 409 110.84C409.864 110.202 410.513 109.316 410.86 108.3C413.17 102.69 415.86 95.77 418.36 89.54H419.6C422.93 97.96 426.12 106.24 427.33 109.27C427.551 109.958 428.032 110.532 428.67 110.87C429.34 111.209 430.071 111.41 430.82 111.46V112.18H420.53ZM417.62 94.11L414.07 103.21H421.24L417.62 94.11Z" fill="white"/>
<path d="M441.13 101.11C440.08 101.11 439.37 100.65 439.37 99.5501C439.37 99.2201 439.59 98.9601 439.59 98.5501C438.914 98.606 438.262 98.829 437.693 99.199C437.124 99.569 436.656 100.074 436.33 100.67V109.67C436.302 109.975 436.373 110.282 436.531 110.544C436.689 110.807 436.927 111.012 437.21 111.13C437.894 111.361 438.608 111.493 439.33 111.52V112.18H431.03V111.52C431.514 111.506 431.994 111.432 432.46 111.3C432.752 111.192 432.998 110.987 433.158 110.72C433.318 110.452 433.382 110.139 433.34 109.83V100.47C433.325 100.136 433.239 99.8083 433.087 99.51C432.935 99.2116 432.722 98.9491 432.46 98.7401C431.979 98.4358 431.428 98.257 430.86 98.2201V97.6001L436.08 97.2401L436.31 97.4701V99.6901H436.38C436.87 98.9517 437.519 98.3334 438.281 97.8815C439.043 97.4295 439.897 97.1556 440.78 97.0801C441.311 97.0966 441.817 97.3108 442.198 97.6808C442.579 98.0508 442.808 98.5499 442.84 99.0801C442.84 100.21 442.22 101.11 441.13 101.11Z" fill="white"/>
<path d="M449.91 112.5C447.24 112.5 445.96 110.9 445.96 108V98.9002H442.83V97.5002H446.03V92.4502H448.87V97.5002H453.34V98.9002H448.9V107.61C448.9 109.47 449.42 110.68 451.41 110.68C453.08 110.68 453.21 109.37 453.41 108.13H454.13C453.86 110.48 452.32 112.5 449.91 112.5Z" fill="white"/>
<path d="M460.61 112.63C459.211 112.622 457.851 112.167 456.73 111.33L456.4 112.33H455.33L455.16 107.28H455.85C456.21 108.87 458.16 111.84 460.77 111.84C463.05 111.84 463.84 110.64 463.84 109.04C463.84 107.44 462.57 106.65 460.02 105.9C457.94 105.29 455.59 104.08 455.59 101.27C455.59 98.8602 457.45 97.0002 460.48 97.0002C461.667 96.9604 462.842 97.2549 463.87 97.8502L464.13 96.9702H465.13L465.36 101.47H464.68C464.502 100.448 463.976 99.518 463.19 98.8398C462.404 98.1615 461.408 97.7765 460.37 97.7502C458.37 97.7502 457.83 98.8902 457.83 100.1C457.83 101.96 458.94 102.32 461.64 103.2C464.34 104.08 466.08 105.29 466.08 107.96C466.13 110.87 463.67 112.63 460.61 112.63Z" fill="white"/>
<path d="M492.96 100.4C492.02 101.48 490.91 104.64 488.89 107.09C489.871 108.33 491.011 109.436 492.28 110.38C493.595 111.052 495.044 111.421 496.52 111.46V112.18H488.89L486.6 109.37C485.04 110.97 483.01 112.7 480.34 112.7C477.28 112.7 474.11 111.07 474.11 107.32C474.11 104.22 475.94 102.39 479.59 100.08C477.93 97.5002 477.24 96.0802 477.24 94.4702C477.24 91.4702 479.88 89.4702 482.85 89.4702C485.82 89.4702 486.96 91.6302 486.96 93.8502C486.96 95.7702 485.59 97.6602 482.96 99.2602C484.96 102.19 486.32 103.92 488.34 106.43C489.74 104.43 490.98 102 490.98 100.5C490.98 99.7202 489.74 99.1902 488.05 98.8402V98.1102H497.41V98.8002C495.54 99.0002 494.01 99.2302 492.96 100.4ZM480.08 100.73C479.213 101.282 478.511 102.059 478.052 102.979C477.592 103.898 477.391 104.925 477.47 105.95C477.47 108.62 479.04 110.68 481.74 110.68C482.557 110.684 483.364 110.506 484.104 110.16C484.844 109.814 485.498 109.309 486.02 108.68C484.19 106.24 481.48 102.85 480.13 100.73H480.08ZM482.92 90.4602C480.76 90.4602 480.37 92.5702 480.37 93.5202C480.37 94.9202 480.96 96.4202 482.49 98.5202C484.58 97.2502 485.49 95.7502 485.49 93.7002C485.49 91.6502 484.35 90.4602 482.92 90.4602V90.4602Z" fill="white"/>
<path d="M514.29 112.18H504.29V111.46C505.107 111.449 505.92 111.338 506.71 111.13C507.033 111.018 507.308 110.8 507.49 110.511C507.672 110.222 507.749 109.879 507.71 109.54V92.7999C507.745 92.4524 507.666 92.103 507.486 91.8039C507.305 91.5047 507.033 91.2718 506.71 91.1399C505.978 90.8505 505.205 90.6751 504.42 90.6199V89.8999H514.93C519.39 89.8999 527.09 92.2499 527.09 101.19C527.13 108.79 520.59 112.18 514.29 112.18ZM514.03 90.8199C513.28 90.8199 511.91 90.8199 511.2 90.8799V108.72C511.39 110.32 512.2 111.23 514.75 111.23C520.49 111.23 523.1 107.02 523.1 101.15C523.1 95.2799 519.51 90.8199 514.03 90.8199Z" fill="white"/>
<path d="M535.75 112.57C530.83 112.57 528.55 108.98 528.55 104.68C528.55 100.76 531.06 97.0098 535.4 97.0098C539.74 97.0098 541.49 99.9498 541.49 103.27V103.57H531.78V103.93C531.78 108.13 533.14 111.13 536.64 111.13C539.18 111.13 539.99 110.22 541.23 108.23L541.82 108.62C541.29 109.788 540.437 110.781 539.362 111.481C538.286 112.181 537.033 112.558 535.75 112.57V112.57ZM535.36 97.7598C533.31 97.7598 531.87 99.7598 531.78 102.85L538.33 102.78C538.33 100.44 537.84 97.7598 535.36 97.7598Z" fill="white"/>
<path d="M547.89 112.63C546.491 112.622 545.131 112.167 544.01 111.33L543.68 112.33H542.6L542.44 107.28H543.13C543.48 108.87 545.44 111.84 548.05 111.84C550.33 111.84 551.12 110.64 551.12 109.04C551.12 107.44 549.84 106.65 547.3 105.9C545.21 105.29 542.86 104.08 542.86 101.27C542.86 98.8602 544.72 97.0002 547.76 97.0002C548.947 96.9604 550.122 97.2549 551.15 97.8502L551.41 96.9702H552.41L552.64 101.47H551.95C551.774 100.448 551.25 99.519 550.466 98.8407C549.682 98.1623 548.686 97.7769 547.65 97.7502C545.65 97.7502 545.11 98.8902 545.11 100.1C545.11 101.96 546.21 102.32 548.92 103.2C551.63 104.08 553.36 105.29 553.36 107.96C553.37 110.87 550.95 112.63 547.89 112.63Z" fill="white"/>
<path d="M554.13 112.18V111.52C554.617 111.505 555.101 111.431 555.57 111.3C555.857 111.184 556.098 110.978 556.257 110.712C556.416 110.447 556.484 110.137 556.45 109.83V100.47C556.433 100.15 556.345 99.838 556.193 99.5562C556.041 99.2743 555.828 99.0297 555.57 98.8398C554.977 98.5017 554.319 98.2905 553.64 98.2198V97.5998L559.19 97.2398L559.42 97.4698V109.63C559.396 109.94 559.467 110.25 559.624 110.518C559.782 110.786 560.018 111 560.3 111.13C560.751 111.34 561.235 111.472 561.73 111.52V112.18H554.13ZM557.66 92.8398C557.13 92.8398 556.621 92.6291 556.246 92.254C555.871 91.8789 555.66 91.3702 555.66 90.8398C555.66 90.3037 555.869 89.7886 556.242 89.4039C556.616 89.0193 557.124 88.7954 557.66 88.7798C558.179 88.7795 558.677 88.9805 559.05 89.3406C559.423 89.7007 559.642 90.1916 559.66 90.7098C559.667 90.9846 559.619 91.258 559.519 91.5142C559.419 91.7704 559.27 92.0043 559.079 92.2024C558.889 92.4004 558.661 92.5587 558.409 92.6682C558.156 92.7776 557.885 92.8359 557.61 92.8398H557.66Z" fill="white"/>
<path d="M576.13 100.17C575.06 100.17 574.73 99.46 574.73 98.09C574.019 98.0243 573.308 98.2198 572.73 98.64V98.87C573.486 99.7308 573.924 100.825 573.97 101.97C573.97 104.81 571.13 106.6 568.46 106.6H566.57C565.98 106.89 565.42 107.29 565.42 108C565.42 109.6 567.31 109.54 568.91 109.6C569.91 109.6 571.91 109.76 572.57 109.8C573.699 109.866 574.76 110.362 575.536 111.186C576.311 112.01 576.742 113.099 576.74 114.23C576.74 117.23 574.16 119.55 568.55 119.55C563.4 119.55 561.44 118.05 561.44 115.55C561.44 113.72 563.14 112.19 566.6 112.09V111.86C565.33 111.5 563.17 110.86 563.17 108.96C563.17 107.36 565 106.74 566.08 106.32V106.11C563.79 105.2 562.39 103.7 562.39 101.78C562.39 98.78 565 96.98 568.23 96.98C569.759 97.1036 571.264 97.4402 572.7 97.98C573.652 97.284 574.812 96.9314 575.99 96.98C576.399 96.9929 576.786 97.1637 577.072 97.4565C577.357 97.7493 577.518 98.1412 577.52 98.55C577.53 99.52 577.04 100.17 576.13 100.17ZM572.45 112.6C570.77 112.411 569.08 112.334 567.39 112.37C565.08 112.83 564.2 113.74 564.2 115.76C564.2 117.07 565.47 118.7 569.09 118.7C572.25 118.7 574.09 117.43 574.09 114.89C574.146 114.378 574.013 113.863 573.717 113.442C573.42 113.02 572.981 112.721 572.48 112.6H572.45ZM568.13 97.73C566.04 97.73 565.46 99.62 565.46 101.73C565.46 104.05 566.53 105.81 568.16 105.81C570.09 105.81 570.94 103.92 570.94 101.81C570.94 99.7 570.2 97.73 568.13 97.73Z" fill="white"/>
<path d="M587.32 112.18V111.52C587.837 111.505 588.35 111.431 588.85 111.3C589.142 111.191 589.388 110.987 589.548 110.719C589.708 110.452 589.772 110.138 589.73 109.83V101.97C589.73 99.7198 588.43 98.4798 587.02 98.4798C586.199 98.4549 585.386 98.6539 584.669 99.0556C583.952 99.4572 583.358 100.046 582.95 100.76V109.67C582.924 109.975 582.995 110.28 583.153 110.543C583.311 110.805 583.548 111.011 583.83 111.13C584.309 111.36 584.829 111.493 585.36 111.52V112.18H577.66V111.52C578.147 111.505 578.631 111.431 579.1 111.3C579.392 111.191 579.638 110.987 579.798 110.719C579.958 110.452 580.022 110.138 579.98 109.83V100.47C579.965 100.135 579.879 99.808 579.727 99.5097C579.575 99.2113 579.361 98.9488 579.1 98.7398C578.618 98.4355 578.068 98.2567 577.5 98.2198V97.5998L582.72 97.2398L582.95 97.4698V99.6898H583.01C584.25 98.4798 585.49 97.0098 588.3 97.0098C591.3 97.0098 592.73 99.0698 592.73 102.16V109.7C592.698 110.003 592.763 110.309 592.915 110.573C593.068 110.838 593.301 111.046 593.58 111.17C594.034 111.375 594.522 111.494 595.02 111.52V112.18H587.32Z" fill="white"/>
<path d="M172.15 1.4502H171.06V111.84H172.15V1.4502Z" fill="white"/>
<path d="M145.82 78.3598C146.196 76.8368 146.314 75.2618 146.17 73.6998C146.725 73.8216 147.218 74.1398 147.557 74.5957C147.897 75.0517 148.06 75.6149 148.018 76.1817C147.975 76.7485 147.729 77.281 147.326 77.6811C146.922 78.0813 146.387 78.3223 145.82 78.3598V78.3598ZM128.96 105.91C128.96 105.91 128.46 108.7 126.83 107.91C125.2 107.12 124.83 104.65 124.83 104.65C126.173 105.185 127.558 105.609 128.97 105.92L128.96 105.91ZM141.08 110.42C139.24 113.42 134.2 110.09 134.2 110.09C135.78 108.686 136.746 106.718 136.89 104.61C139.43 104.78 143.03 107.23 141.08 110.42ZM120.43 25.7498C118.33 24.9498 118.92 18.4798 118.92 18.4798C119.061 19.2205 119.377 19.9168 119.841 20.5107C120.306 21.1045 120.905 21.5788 121.59 21.8938C122.275 22.2089 123.025 22.3557 123.779 22.3219C124.532 22.2882 125.266 22.0749 125.92 21.6998C125.92 21.6998 122.85 26.6998 120.43 25.6998V25.7498ZM115.69 75.8098C114.033 76.0127 112.363 75.5646 111.03 74.5598C107.29 71.6798 105.75 63.9798 105.47 58.0598C107.07 61.4598 109.63 66.8298 114.26 65.4098C115.58 64.795 116.758 63.9131 117.72 62.8198C119.16 66.7698 120.38 74.9198 115.72 75.8198L115.69 75.8098ZM141.01 14.1098C142.53 14.1898 144.01 15.1098 144.01 16.3098C144.01 18.1998 142.19 18.6598 140.8 18.5198C138.93 18.3298 138.06 17.2498 138.09 16.1398C138.09 14.8498 139.47 14.0398 141 14.1398L141.01 14.1098ZM120.71 6.27979C122.94 0.919788 128.71 0.0297885 128.71 0.0297885C124.22 -0.110212 109.93 2.16979 108.63 16.3398C108.2 20.9998 109.93 24.9298 111.86 28.1798C109.45 26.3498 106.55 23.2398 106.13 19.0398C105.77 15.6198 107.57 10.3898 107.57 10.3898C104.14 14.4398 100.48 19.5198 101.28 26.3898C102.03 32.7898 106.28 37.1098 109.17 40.7298C107.123 39.7248 105.294 38.3245 103.79 36.6098C104.42 44.2898 106.79 50.1998 112.22 53.0998C105.33 52.4398 103.96 47.5998 102 42.1698C100.63 38.3798 98.3501 36.2398 96.2601 33.9098C99.4901 34.5698 101.32 36.6298 102.9 38.9098C101.9 32.2798 97.0901 29.4098 90.3401 28.5098C93.2001 25.9198 97.9501 28.4598 100.15 29.7098C99.4192 28.2643 98.5376 26.9001 97.5201 25.6398C94.2101 22.0898 86.9701 22.9298 82.6301 24.3798C83.6333 22.8482 85.086 21.6645 86.7887 20.9913C88.4914 20.3181 90.3607 20.1883 92.1401 20.6198C89.7511 18.4896 86.7149 17.2251 83.5201 17.0298C77.4501 16.6298 72.3601 19.9598 69.3601 22.2298C70.0901 18.2998 73.2701 16.8098 76.1701 15.0598C66.0201 13.3698 60.8801 19.6998 57.5201 25.9998C57.2201 22.1298 60.6001 17.7698 60.6001 17.7698C48.1601 22.9098 49.9901 36.9398 49.9901 36.9398C47.7001 35.5498 47.7701 30.3798 48.5601 27.9398C46.9036 30.5359 46.0001 33.5407 45.9501 36.6198C45.8701 41.7898 49.5001 47.2998 49.5001 47.2998C45.7601 46.7798 43.4401 39.2998 43.4401 39.2998C41.4401 49.7998 50.3601 58.2998 50.3601 58.2998C46.3601 57.8798 42.8601 52.8398 42.8601 52.8398C44.3001 63.1998 53.4501 68.7898 53.4501 68.7898C50.5901 69.3798 46.4501 66.5298 46.4501 66.5298C48.3642 71.0997 51.3479 75.1431 55.1501 78.3198C51.9701 78.4698 48.6001 74.6098 48.6001 74.6098C48.3101 78.3198 50.3701 83.1998 50.3701 83.1998C47.1101 82.0498 46.1401 77.3798 46.1401 77.3798C43.4801 81.1098 44.0001 86.6498 44.0001 86.6498C40.8601 84.5598 41.1301 80.1098 41.1301 80.1098C38.0501 81.6498 36.2701 87.7798 36.2701 87.7798C34.7201 84.4598 36.3501 80.5798 36.3501 80.5798C32.0701 81.6798 29.3501 86.7398 29.3501 86.7398C29.0801 83.6398 31.0601 79.9998 31.0601 79.9998C27.6901 80.0998 24.8101 84.8898 24.8101 84.8898C24.2201 81.7198 27.2101 78.2498 27.2101 78.2498C23.5101 77.8598 20.3201 81.8298 20.3201 81.8298C19.8801 78.1798 23.4601 75.4598 23.4601 75.4598C19.4601 74.5198 16.5701 78.0198 16.5701 78.0198C16.0201 74.1798 20.2101 71.4998 20.2101 71.4998C17.0501 70.1398 13.6101 72.9598 13.6101 72.9598C13.2201 69.0398 17.6101 66.8198 17.6101 66.8198C14.9501 64.9998 11.4501 66.8198 11.4501 66.8198C12.0301 63.5998 16.0201 62.7398 16.0201 62.7398C15.2947 61.9709 14.4139 61.3655 13.4362 60.9637C12.4585 60.5619 11.4065 60.3731 10.3501 60.4098C11.4101 57.5698 15.1301 58.1098 15.1301 58.1098C13.851 56.491 12.1057 55.3042 10.1301 54.7098C12.1301 52.9798 15.0601 54.1698 15.0601 54.1698C14.2501 51.3698 10.9101 49.7298 10.9101 49.7298C11.7732 49.5104 12.6726 49.4736 13.5508 49.6217C14.429 49.7697 15.2666 50.0995 16.0101 50.5898C15.7001 48.0298 13.0101 45.6698 13.0101 45.6698C14.9385 45.8245 16.751 46.6529 18.1301 48.0098C17.9373 46.2828 17.3891 44.6145 16.5201 43.1098C18.2868 43.8137 19.8652 44.9196 21.1301 46.3398C21.3118 45.2266 21.198 44.0852 20.8001 43.0298C24.8801 44.5698 27.4201 47.6498 29.5901 51.0998C28.4801 44.7498 24.4801 40.1698 18.1101 39.6198C7.02008 38.6698 -0.0499244 51.2498 -0.0199244 60.4598C-0.0199244 71.2098 3.64007 78.3598 8.44007 85.3198C14.2721 93.4842 22.8849 99.238 32.6601 101.5C29.7801 102.42 27.0901 104.73 27.0901 107.38C31.7701 107.69 35.6201 109.81 37.6101 112.38H54.0501C57.0179 112.457 59.9876 112.34 62.9401 112.03C65.9401 111.38 67.3901 104.54 71.0201 104.67C74.6501 104.8 73.5601 110.62 70.4701 110.77C69.4701 110.82 69.0001 110.34 68.1401 110.05C71.4001 117.84 81.0801 109.05 76.5701 103.6C81.8201 103.81 81.4801 110.6 77.8301 111.31C83.5601 111.86 85.2201 106.16 82.5901 102.03C79.9601 97.8998 74.7001 98.6898 70.5001 100.68C66.3001 102.67 62.5001 104.2 59.7101 104.55C57.7111 104.94 55.6401 104.691 53.7901 103.84C49.5001 101.29 57.1501 97.0698 59.0001 95.9398C65.7801 91.8298 73.0001 86.9398 73.7001 77.1198C74.2301 69.8198 71.4801 66.0098 69.2201 61.5098C67.3601 57.8198 65.4001 54.1098 65.1001 49.3198C64.6801 42.7998 69.4901 37.9498 75.3201 38.1998C83.4901 38.5498 87.6801 45.0598 88.2301 53.2698C88.4501 56.5198 87.7301 60.3998 87.5101 63.6698C86.6001 77.2798 93.1301 84.2598 100.42 90.5698C106.838 96.0734 114.11 100.495 121.95 103.66C122.52 108.9 125.71 114.66 131.95 111.91C135.2 117.5 147.26 116.46 145.57 108.32C144.79 104.53 139.18 103.97 139.57 99.6398C139.76 97.5698 142.13 96.4498 144.31 97.1998C146.49 97.9498 147.71 101.51 147.54 104.02C151.15 98.0198 147.47 89.1698 140.01 90.9198C136.22 91.8098 132.47 98.4598 132.47 98.4598C127.66 95.8598 123.06 93.2698 123.06 93.2698C134.11 92.7298 141.11 87.8398 145.21 80.3398C150.54 81.5798 154.15 77.8998 152.74 73.5298C152.74 73.5298 157.4 74.9698 157.93 78.7898C158.46 82.6098 153.37 83.4798 150.48 81.6098C150.48 81.6098 152.93 87.4498 157.61 86.3098C162.29 85.1698 161.79 80.1998 160.77 78.2198C159.75 76.2398 155.52 72.4998 156.62 69.9698C157.72 67.4398 162.81 69.1498 162.06 75.6798C165.78 70.4898 162.51 62.2298 156.51 62.2298C152.06 62.2298 150.29 66.0198 149.15 69.9398C148.167 69.6087 147.113 69.5499 146.1 69.7698C145.18 63.4598 141.21 59.3598 134.81 56.8498C129.08 54.6098 123.51 50.7298 122.97 44.4798C122.71 41.5298 123.64 39.1498 125.84 38.0198C131.57 35.0998 135.43 41.3998 136.42 45.5598C136.35 40.6798 138.2 38.3398 140.37 35.8698C139.417 34.1927 137.987 32.8369 136.262 31.975C134.536 31.1131 132.593 30.7841 130.68 31.0298C128.515 31.3817 126.423 32.0914 124.49 33.1298C125.97 29.7498 128.55 23.7698 134.26 23.4998C138.9 23.2698 141.16 27.3598 142.52 31.3898C143.28 23.7798 147.34 18.5198 151.12 14.5298C146.71 17.1298 144.43 11.6598 140.18 11.6598C134.12 11.6598 131.18 18.3698 126.02 19.0198C123.86 19.2798 122.24 17.7498 121.35 17.0198C119.72 15.7198 118.42 11.6098 120.65 6.2398" fill="white"/>
</g>
<defs>
<clipPath id="clip0_66_114">
<rect width="668.65" height="119.55" fill="white"/>
</clipPath>
</defs>
</svg>
